<?xml version="1.0" standalone="no"?>
<!DOCTYPE svg PUBLIC "-//W3C//DTD SVG 20010904//EN"
 "http://www.w3.org/TR/2001/REC-SVG-20010904/DTD/svg10.dtd">
<svg version="1.0" xmlns="http://www.w3.org/2000/svg"
 width="304.000000pt" height="724.000000pt" viewBox="0 0 304.000000 724.000000"
 preserveAspectRatio="xMidYMid meet">
<metadata>
Created by potrace 1.15, written by Peter Selinger 2001-2017
</metadata>
<g transform="translate(0.000000,724.000000) scale(0.100000,-0.100000)"
fill="#000000" stroke="none">
<path d="M1220 7009 c-157 -12 -345 -36 -465 -60 -162 -33 -366 -105 -449
-159 -90 -59 -116 -97 -116 -173 0 -51 3 -57 40 -90 123 -112 418 -197 865
-249 148 -17 733 -17 880 0 499 59 781 149 908 290 43 49 47 77 15 134 -67
118 -383 234 -768 282 -284 35 -636 45 -910 25z m530 -69 c451 -19 797 -89
951 -192 149 -100 105 -194 -133 -289 -58 -23 -257 -69 -413 -95 -151 -26
-931 -32 -1117 -10 -150 19 -348 57 -447 88 -139 43 -253 117 -267 174 -40
157 396 297 1006 323 96 4 182 8 190 9 8 1 112 -3 230 -8z"/>
<path d="M901 6845 c-122 -20 -197 -38 -202 -46 -22 -35 5 -100 52 -124 24
-13 40 -14 82 -6 29 5 103 18 165 27 102 16 116 20 138 47 26 32 34 103 12
125 -16 16 -24 15 -247 -23z"/>
<path d="M1404 6685 c-72 -16 -119 -38 -128 -60 -3 -9 -6 -75 -6 -146 l0 -129
280 0 280 0 0 145 0 144 -31 16 c-81 42 -273 57 -395 30z m351 -65 c94 -47 53
-88 -108 -111 -67 -10 -108 -10 -178 -2 -143 18 -203 60 -144 99 51 33 115 44
250 41 115 -2 136 -5 180 -27z"/>
<path d="M2857 6534 c-71 -66 -137 -101 -298 -154 -128 -43 -350 -85 -584
-112 -160 -17 -719 -18 -880 0 -429 48 -743 138 -866 249 l-40 37 6 -470 c3
-258 8 -483 11 -501 21 -138 475 -285 999 -323 664 -48 1360 51 1619 230 82
56 77 19 86 587 5 279 8 508 7 509 -1 1 -28 -22 -60 -52z m-227 -213 c18 -35
12 -98 -12 -126 -19 -21 -48 -31 -178 -60 -85 -19 -166 -35 -179 -35 -36 0
-91 63 -91 105 0 19 6 37 12 41 17 10 375 91 410 93 18 1 31 -6 38 -18z"/>
<path d="M210 5338 c0 -135 2 -252 45 -2633 14 -742 25 -1448 25 -1567 0 -120
5 -241 11 -270 42 -199 257 -378 588 -488 631 -210 1481 -84 1813 268 82 87
118 162 129 267 5 44 13 422 19 840 6 418 17 1116 25 1550 8 435 16 972 20
1195 3 223 8 533 11 689 l7 284 -44 -30 c-74 -51 -135 -81 -226 -113 -424
-150 -1060 -196 -1638 -119 -335 45 -610 131 -752 236 l-33 24 0 -133z"/>
</g>
</svg>
