<?xml version="1.0" encoding="UTF-8" standalone="no"?>
<svg
   xmlns:dc="http://purl.org/dc/elements/1.1/"
   xmlns:cc="http://creativecommons.org/ns#"
   xmlns:rdf="http://www.w3.org/1999/02/22-rdf-syntax-ns#"
   xmlns:svg="http://www.w3.org/2000/svg"
   xmlns="http://www.w3.org/2000/svg"
   xmlns:sodipodi="http://sodipodi.sourceforge.net/DTD/sodipodi-0.dtd"
   xmlns:inkscape="http://www.inkscape.org/namespaces/inkscape"
   width="210mm"
   height="297mm"
   viewBox="0 0 210 297"
   version="1.1"
   id="svg119"
   inkscape:version="1.0beta2 (2b71d25, 2019-12-03)"
   sodipodi:docname="sixtel-inkscape.svg">
  <defs
     id="defs113" />
  <sodipodi:namedview
     id="base"
     pagecolor="#ffffff"
     bordercolor="#666666"
     borderopacity="1.0"
     inkscape:pageopacity="0.0"
     inkscape:pageshadow="2"
     inkscape:zoom="0.35"
     inkscape:cx="400"
     inkscape:cy="445.71429"
     inkscape:document-units="mm"
     inkscape:current-layer="layer1"
     inkscape:document-rotation="0"
     showgrid="false"
     inkscape:window-width="1600"
     inkscape:window-height="880"
     inkscape:window-x="0"
     inkscape:window-y="1103"
     inkscape:window-maximized="0" />
  <metadata
     id="metadata116">
    <rdf:RDF>
      <cc:Work
         rdf:about="">
        <dc:format>image/svg+xml</dc:format>
        <dc:type
           rdf:resource="http://purl.org/dc/dcmitype/StillImage" />
        <dc:title />
      </cc:Work>
    </rdf:RDF>
  </metadata>
  <g
     inkscape:label="Layer 1"
     inkscape:groupmode="layer"
     id="layer1">
    <path
       inkscape:connector-curvature="0"
       id="path84"
       d="M 28.67271,177.90317 C 20.72473,176.89402 14.41337,174.80303 9.5434603,171.56552 7.22765,170.02597 4.34556,166.96751 3.5282,165.18219 2.59687,163.14789 2.38428,161.33188 2.38464,155.41366 2.38481,152.50325 2.14682,137.02512 1.85576,121.01782 1.5647,105.01054 1.14593,81.971943 0.92514999,69.820958 c -0.22077,-12.150992 -0.40018,-23.602709 -0.39869,-25.448257 l 0.003,-3.355544 1.38906001,0.946296 c 4.23233,2.883273 11.5858,4.987451 21.6378,6.191604 6.41863,0.768903 17.60452,0.839764 23.80439,0.150794 10.94327,-1.216083 18.40104,-3.290951 23.03328,-6.408216 l 1.38217,-0.930135 -0.17659,6.687667 c -0.0971,3.678211 -0.35185,18.474851 -0.56606,32.881416 -0.21421,14.40656 -0.50451,32.027797 -0.64513,39.158327 -0.14061,7.13052 -0.32853,19.2749 -0.41761,26.9875 -0.0891,7.7126 -0.28165,14.73728 -0.42796,15.61041 -1.20646,7.20007 -10.79147,13.32569 -24.03418,15.35984 -3.87598,0.59536 -13.04506,0.73181 -16.83564,0.25051 z M 26.9875,46.530312 C 15.3387,45.705254 5.50129,43.07942 1.62331,39.760011 0.59409999,38.879049 0.57416999,38.82764 0.42969999,36.681584 c -0.0808,-1.200378 -0.20647,-7.163536 -0.27926,-13.251472 L 0.01811,12.361152 l 1.04145,0.94089 c 3.22824,2.91652 11.57971,5.31002 22.88524,6.55883 4.27171,0.47185 19.05036,0.46905 23.28333,-0.004 6.18489,-0.6918 12.06788,-1.81216 15.44685,-2.94171 4.28999,-1.43409 5.98695,-2.31914 7.97408,-4.15887 l 1.64104,-1.51931 -0.16033,5.54584 c -0.0882,3.05022 -0.23409,9.23678 -0.32422,13.74793 l -0.16389,8.202083 -1.03462,0.987769 c -2.89523,2.764139 -12.46967,5.593977 -22.18829,6.55801 -3.81291,0.378222 -17.39493,0.538001 -21.43125,0.252119 z m 32.56642,-23.13056 c 4.86801,-1.08961 5.34768,-1.42562 5.21566,-3.65358 -0.0531,-0.89581 -0.22437,-1.42338 -0.52289,-1.61062 -0.33106,-0.20765 -1.81113,0.0161 -5.82084,0.88016 -2.95729,0.63724 -5.52572,1.27087 -5.70762,1.40807 -0.1819,0.13721 -0.33073,0.64313 -0.33073,1.12427 0,1.10596 1.46098,2.76457 2.43517,2.76457 0.35908,0 2.48815,-0.41079 4.73125,-0.91287 z M 26.54,19.784962 C 15.10263,19.010862 4.9018,16.296312 1.05421,13.002922 0.08478,12.173122 0,11.993732 0,10.772092 0,8.9867316 0.60299999,7.8289616 2.10843,6.7238816 c 8.30533,-6.09667997 32.48789,-8.5238599 52.64896,-5.28435 10.30317,1.65553 17.47386,5.24948 17.47386,8.7579104 0,0.96372 -2.46896,3.36398 -4.6302,4.50135 -7.67957,4.04143 -24.92862,6.17804 -41.06105,5.08617 z m 20.02667,-1.83153 c 7.32228,-0.65447 14.54798,-2.21839 18.12754,-3.9235 6.35325,-3.02634 5.20788,-6.3423804 -3.10805,-8.9983104 -6.44792,-2.05933 -14.65441,-3.03708 -25.47053,-3.03464 -11.06185,0.002 -19.11187,0.9749 -25.66458,3.10019 -4.49491,1.45787 -7.01146,3.27409 -7.01146,5.0602404 0,1.64123 2.75062,3.64649 6.87916,5.01505 3.2494,1.07713 10.45985,2.37007 16.0073,2.87035 2.49864,0.22533 17.45876,0.15927 20.24062,-0.0894 z m -17.72708,-4.06825 v -3.81285 l 1.12448,-0.5384505 c 2.44586,-1.1711599 7.57951,-1.3986299 10.98369,-0.4866899 2.38599,0.6391899 2.44391,0.7573999 2.44391,4.9876904 v 3.66316 h -7.27604 -7.27604 z m 12.07298,-0.80594 c 2.3854,-0.72045 2.53658,-1.63257 0.4317,-2.60459 -1.12064,-0.5175205 -1.69852,-0.5818205 -5.22864,-0.5818205 -3.70417,0 -4.05694,0.0441 -5.29167,0.6614605 -0.92604,0.46302 -1.32291,0.82021 -1.32291,1.19062 0,0.66237 1.33643,1.34809 3.31468,1.70075 1.93506,0.34496 6.41236,0.14234 8.09684,-0.36642 z M 14.78531,9.1044816 c -0.69351,-0.38311 -1.55614,-1.83491 -1.55614,-2.61898 0,-0.80041 1.2274,-1.18496 6.43097,-2.01483 6.08728,-0.97081 6.13852,-0.96101 5.93702,1.13597 -0.20133,2.09534 -0.70024,2.3892 -5.22424,3.07714 -2.11005,0.32086 -4.07458,0.6328999 -4.36562,0.6934099 -0.29105,0.0605 -0.84094,-0.0622 -1.22199,-0.2727099 z"
       style="fill:#000000;stroke-width:0.264583" />
  </g>
</svg>
